<svg version="1.1" xmlns="http://www.w3.org/2000/svg" xmlns:xlink="http://www.w3.org/1999/xlink" width="1248" height="568"><defs></defs><g><g transform="translate(-10,-10) scale(1,1)"><path fill="#C0C0C0" stroke="none" d="M 65 130 C 65 114.5360256 77.5360256 102 93 102 C 108.4639744 102 121 114.5360256 121 130 C 121 145.4639744 108.4639744 158 93 158 C 77.5360256 158 65 145.4639744 65 130 Z" opacity="0.2"></path></g><g transform="translate(-10,-10) scale(1,1)"><path fill="#ffffff" stroke="none" d="M 58 123 C 58 107.5360256 70.5360256 95 86 95 C 101.4639744 95 114 107.5360256 114 123 C 114 138.4639744 101.4639744 151 86 151 C 70.5360256 151 58 138.4639744 58 123 Z"></path></g><g transform="translate(-10,-10) scale(1,1)"><path fill="none" stroke="#000000" d="M 58 123 C 58 107.5360256 70.5360256 95 86 95 C 101.4639744 95 114 107.5360256 114 123 C 114 138.4639744 101.4639744 151 86 151 C 70.5360256 151 58 138.4639744 58 123 Z" stroke-miterlimit="10"></path></g><g transform="translate(-10,-10) scale(1,1)"><g><path fill="none" stroke="none"></path><text fill="#000000" stroke="none" font-family="Arial" font-size="13px" font-style="normal" font-weight="bold" text-decoration="none" x="53" y="170.5">Subsystem</text></g></g><g transform="translate(-10,-10) scale(1,1)"><rect fill="#C0C0C0" stroke="none" x="511" y="295" width="107.6298828125" height="77" opacity="0.2"></rect></g><g transform="translate(-10,-10) scale(1,1)"><rect fill="#ffffff" stroke="none" x="504" y="288" width="107.6298828125" height="77"></rect></g><g transform="translate(-10,-10) scale(1,1)"><path fill="none" stroke="#000000" d="M 504 288 L 611.6298828125 288 L 611.6298828125 365 L 504 365 L 504 288 Z Z" stroke-miterlimit="10"></path></g><g transform="translate(-10,-10) scale(1,1)"><path fill="none" stroke="#000000" d="M 504 313 L 611.6298828125 313" stroke-miterlimit="10"></path></g><g transform="translate(-10,-10) scale(1,1)"><g><path fill="none" stroke="none"></path><text fill="#000000" stroke="none" font-family="Arial" font-size="13px" font-style="normal" font-weight="bold" text-decoration="none" x="540.81494140625" y="307.5">Arena</text></g></g><g transform="translate(-10,-10) scale(1,1)"><g><path fill="none" stroke="none"></path><text fill="#000000" stroke="none" font-family="Arial" font-size="13px" font-style="normal" font-weight="normal" text-decoration="none" x="509" y="330.5">+players</text></g></g><g transform="translate(-10,-10) scale(1,1)"><g><path fill="none" stroke="none"></path><text fill="#000000" stroke="none" font-family="Arial" font-size="13px" font-style="normal" font-weight="normal" text-decoration="none" x="509" y="345.5">+subsystems</text></g></g><g transform="translate(-10,-10) scale(1,1)"><g><path fill="none" stroke="none"></path><text fill="#000000" stroke="none" font-family="Arial" font-size="13px" font-style="normal" font-weight="normal" text-decoration="none" x="509" y="360.5">+loggers</text></g></g><g transform="translate(-10,-10) scale(1,1)"><rect fill="#C0C0C0" stroke="none" x="415" y="183" width="89.57080078125" height="26" opacity="0.2"></rect></g><g transform="translate(-10,-10) scale(1,1)"><rect fill="#ffffff" stroke="none" x="408" y="176" width="89.57080078125" height="26"></rect></g><g transform="translate(-10,-10) scale(1,1)"><path fill="none" stroke="#000000" d="M 408 176 L 497.57080078125 176 L 497.57080078125 202 L 408 202 L 408 176 Z Z" stroke-miterlimit="10"></path></g><g transform="translate(-10,-10) scale(1,1)"><g><path fill="none" stroke="none"></path><text fill="#000000" stroke="none" font-family="Arial" font-size="13px" font-style="normal" font-weight="bold" text-decoration="none" x="434.285400390625" y="195.5">Player</text></g></g><g transform="translate(-10,-10) scale(1,1)"><path fill="none" stroke="#000000" d="M 510 287 Q 453 240 452 203" stroke-miterlimit="10"></path></g><g transform="translate(-10,-10) scale(1,1)"><path fill="none" stroke="#000000" d="M 456.4825477815691 213.04523595471753 L 452 203 L 448.06658547114057 213.27269439553993" stroke-miterlimit="10"></path></g><g transform="translate(-10,-10) scale(1,1)"><path fill="none" stroke="#000000" d="M 503 315 Q 148 240 111 177" stroke-miterlimit="10"></path></g><g transform="translate(-10,-10) scale(1,1)"><rect fill="#C0C0C0" stroke="none" x="141.5283203125" y="408" width="130.037109375" height="48" opacity="0.2"></rect></g><g transform="translate(-10,-10) scale(1,1)"><rect fill="#ffffff" stroke="none" x="134.5283203125" y="401" width="130.037109375" height="48"></rect></g><g transform="translate(-10,-10) scale(1,1)"><path fill="none" stroke="#000000" d="M 134.5283203125 401 L 264.5654296875 401 L 264.5654296875 449 L 134.5283203125 449 L 134.5283203125 401 Z Z" stroke-miterlimit="10"></path></g><g transform="translate(-10,-10) scale(1,1)"><path fill="none" stroke="#000000" d="M 134.5283203125 426 L 264.5654296875 426" stroke-miterlimit="10"></path></g><g transform="translate(-10,-10) scale(1,1)"><g><path fill="none" stroke="none"></path><text fill="#000000" stroke="none" font-family="Arial" font-size="13px" font-style="normal" font-weight="bold" text-decoration="none" x="188.046875" y="420.5">Sky</text></g></g><g transform="translate(-10,-10) scale(1,1)"><g><path fill="none" stroke="none"></path><text fill="#000000" stroke="none" font-family="Arial" font-size="13px" font-style="normal" font-weight="normal" text-decoration="none" x="139.5283203125" y="443.5">+participations</text></g></g><g transform="translate(-10,-10) scale(1,1)"><rect fill="#C0C0C0" stroke="none" x="146.546875" y="487" width="120" height="48" opacity="0.2"></rect></g><g transform="translate(-10,-10) scale(1,1)"><rect fill="#ffffff" stroke="none" x="139.546875" y="480" width="120" height="48"></rect></g><g transform="translate(-10,-10) scale(1,1)"><path fill="none" stroke="#000000" d="M 139.546875 480 L 259.546875 480 L 259.546875 528 L 139.546875 528 L 139.546875 480 Z Z" stroke-miterlimit="10"></path></g><g transform="translate(-10,-10) scale(1,1)"><path fill="none" stroke="#000000" d="M 139.546875 505 L 259.546875 505" stroke-miterlimit="10"></path></g><g transform="translate(-10,-10) scale(1,1)"><g><path fill="none" stroke="none"></path><text fill="#000000" stroke="none" font-family="Arial" font-size="13px" font-style="normal" font-weight="bold" text-decoration="none" x="168.046875" y="499.5">SkyHandle</text></g></g><g transform="translate(-10,-10) scale(1,1)"><g><path fill="none" stroke="none"></path><text fill="#000000" stroke="none" font-family="Arial" font-size="13px" font-style="normal" font-weight="normal" text-decoration="none" x="144.546875" y="522.5">+optional sky</text></g></g><g transform="translate(-10,-10) scale(1,1)"><path fill="none" stroke="#000000" d="M 200 479 Q 200 465 200 450" stroke-miterlimit="10"></path></g><g transform="translate(-10,-10) scale(1,1)"><path fill="none" stroke="#000000" d="M 204.209517756016 460.16267485762415 L 200 450 L 195.790482243984 460.16267485762415" stroke-miterlimit="10"></path></g><g transform="translate(-10,-10) scale(1,1)"><path fill="none" stroke="#000000" d="M 139 487 Q 63 465 63 352.5 Q 63 240 81.33333333333333 151" stroke-miterlimit="10"></path></g><g transform="translate(-10,-10) scale(1,1)"><path fill="none" stroke="#000000" d="M 134 401 Q 93 386 93 313 Q 93 240 87.55555555555556 151" stroke-miterlimit="10"></path></g><g transform="translate(-10,-10) scale(1,1)"><rect fill="#C0C0C0" stroke="none" x="342.342041015625" y="296" width="113" height="47" opacity="0.2"></rect></g><g transform="translate(-10,-10) scale(1,1)"><rect fill="#ffffff" stroke="none" x="335.342041015625" y="289" width="113" height="47"></rect></g><g transform="translate(-10,-10) scale(1,1)"><path fill="none" stroke="#000000" d="M 335.342041015625 289 L 448.342041015625 289 L 448.342041015625 336 L 335.342041015625 336 L 335.342041015625 289 Z Z" stroke-miterlimit="10"></path></g><g transform="translate(-10,-10) scale(1,1)"><path fill="none" stroke="#000000" d="M 335.342041015625 314 L 448.342041015625 314" stroke-miterlimit="10"></path></g><g transform="translate(-10,-10) scale(1,1)"><g><path fill="none" stroke="none"></path><text fill="#000000" stroke="none" font-family="Arial" font-size="13px" font-style="normal" font-weight="bold" text-decoration="none" x="355.842041015625" y="308.5">Participation</text></g></g><g transform="translate(-10,-10) scale(1,1)"><g><path fill="none" stroke="none"></path><text fill="#000000" stroke="none" font-family="Arial" font-size="13px" font-style="normal" font-weight="normal" text-decoration="none" x="340.342041015625" y="331.5">+optional plane</text></g></g><g transform="translate(-10,-10) scale(1,1)"><rect fill="#C0C0C0" stroke="none" x="166.198486328125" y="307.5" width="58.1435546875" height="24" opacity="0.2"></rect></g><g transform="translate(-10,-10) scale(1,1)"><rect fill="#ffffff" stroke="none" x="159.198486328125" y="300.5" width="58.1435546875" height="24"></rect></g><g transform="translate(-10,-10) scale(1,1)"><path fill="none" stroke="#000000" d="M 159.198486328125 300.5 L 217.342041015625 300.5 L 217.342041015625 324.5 L 159.198486328125 324.5 L 159.198486328125 300.5 Z Z" stroke-miterlimit="10"></path></g><g transform="translate(-10,-10) scale(1,1)"><g><path fill="none" stroke="none"></path><text fill="#000000" stroke="none" font-family="Arial" font-size="13px" font-style="normal" font-weight="bold" text-decoration="none" x="164.770263671875" y="320">Physics</text></g></g><g transform="translate(-10,-10) scale(1,1)"><path fill="none" stroke="#000000" d="M 193 400 Q 189 386 188 326" stroke-miterlimit="10"></path></g><g transform="translate(-10,-10) scale(1,1)"><path fill="none" stroke="#000000" d="M 192.37828761703034 336.0911147819534 L 188 326 L 183.9604211719362 336.2314125560383" stroke-miterlimit="10"></path></g><g transform="translate(-10,-10) scale(1,1)"><path fill="none" stroke="#000000" d="M 266 411 Q 385 386 389 337" stroke-miterlimit="10"></path></g><g transform="translate(-10,-10) scale(1,1)"><path fill="none" stroke="#000000" d="M 392.3687059396001 347.4714765096668 L 389 337 L 383.9775827646936 346.7864868627356" stroke-miterlimit="10"></path></g><g transform="translate(-10,-10) scale(1,1)"><rect fill="#C0C0C0" stroke="none" x="255.342041015625" y="307.5" width="56" height="24" opacity="0.2"></rect></g><g transform="translate(-10,-10) scale(1,1)"><rect fill="#ffffff" stroke="none" x="248.342041015625" y="300.5" width="56" height="24"></rect></g><g transform="translate(-10,-10) scale(1,1)"><path fill="none" stroke="#000000" d="M 248.342041015625 300.5 L 304.342041015625 300.5 L 304.342041015625 324.5 L 248.342041015625 324.5 L 248.342041015625 300.5 Z Z" stroke-miterlimit="10"></path></g><g transform="translate(-10,-10) scale(1,1)"><g><path fill="none" stroke="none"></path><text fill="#000000" stroke="none" font-family="Arial" font-size="13px" font-style="normal" font-weight="bold" text-decoration="none" x="263.842041015625" y="320">Map</text></g></g><g transform="translate(-10,-10) scale(1,1)"><path fill="none" stroke="#000000" d="M 249 400 Q 277 386 276 326" stroke-miterlimit="10"></path></g><g transform="translate(-10,-10) scale(1,1)"><path fill="none" stroke="#000000" d="M 280.37828761703037 336.0911147819534 L 276 326 L 271.96042117193616 336.2314125560383" stroke-miterlimit="10"></path></g><g transform="translate(-10,-10) scale(1,1)"><rect fill="#C0C0C0" stroke="none" x="213.3134765625" y="144.5" width="50.919921875" height="44" opacity="0.2"></rect></g><g transform="translate(-10,-10) scale(1,1)"><rect fill="#ffffff" stroke="none" x="206.3134765625" y="137.5" width="50.919921875" height="44"></rect></g><g transform="translate(-10,-10) scale(1,1)"><path fill="none" stroke="#000000" d="M 206.3134765625 137.5 L 257.2333984375 137.5 L 257.2333984375 181.5 L 206.3134765625 181.5 L 206.3134765625 137.5 Z Z" stroke-miterlimit="10"></path></g><g transform="translate(-10,-10) scale(1,1)"><g><path fill="none" stroke="none"></path><text fill="#000000" stroke="none" font-family="Arial" font-size="13px" font-style="normal" font-weight="bold" text-decoration="none" x="218.2734375" y="157">Prop</text></g></g><g transform="translate(-10,-10) scale(1,1)"><path fill="none" stroke="#000000" d="M 338 288 Q 232 240 231 183" stroke-miterlimit="10"></path></g><g transform="translate(-10,-10) scale(1,1)"><path fill="none" stroke="#000000" d="M 235.38713519770502 193.08727142279108 L 231 183 L 226.96939502155456 193.23495107500426" stroke-miterlimit="10"></path></g><g transform="translate(-10,-10) scale(1,1)"><rect fill="#C0C0C0" stroke="none" x="332.897705078125" y="154.5" width="50.919921875" height="24" opacity="0.2"></rect></g><g transform="translate(-10,-10) scale(1,1)"><rect fill="#ffffff" stroke="none" x="325.897705078125" y="147.5" width="50.919921875" height="24"></rect></g><g transform="translate(-10,-10) scale(1,1)"><path fill="none" stroke="#000000" d="M 325.897705078125 147.5 L 376.817626953125 147.5 L 376.817626953125 171.5 L 325.897705078125 171.5 L 325.897705078125 147.5 Z Z" stroke-miterlimit="10"></path></g><g transform="translate(-10,-10) scale(1,1)"><g><path fill="none" stroke="none"></path><text fill="#000000" stroke="none" font-family="Arial" font-size="13px" font-style="normal" font-weight="bold" text-decoration="none" x="334.857666015625" y="167">Plane</text></g></g><g transform="translate(-10,-10) scale(1,1)"><path fill="none" stroke="#000000" d="M 378 288 Q 352 240 351 173" stroke-miterlimit="10"></path></g><g transform="translate(-10,-10) scale(1,1)"><path fill="none" stroke="#000000" d="M 355.3607137863082 183.09872146728986 L 351 173 L 346.9426158582774 183.22436471994706" stroke-miterlimit="10"></path></g><g transform="translate(-10,-10) scale(1,1)"><rect fill="#C0C0C0" stroke="none" x="258.739501953125" y="27" width="89" height="44" opacity="0.2"></rect></g><g transform="translate(-10,-10) scale(1,1)"><rect fill="#ffffff" stroke="none" x="251.739501953125" y="20" width="89" height="44"></rect></g><g transform="translate(-10,-10) scale(1,1)"><path fill="none" stroke="#000000" d="M 251.739501953125 20 L 340.739501953125 20 L 340.739501953125 64 L 251.739501953125 64 L 251.739501953125 20 Z Z" stroke-miterlimit="10"></path></g><g transform="translate(-10,-10) scale(1,1)"><g><path fill="none" stroke="none"></path><text fill="#000000" stroke="none" font-family="Arial" font-size="13px" font-style="normal" font-weight="bold" text-decoration="none" x="260.239501953125" y="39.5">PlaneTuning</text></g></g><g transform="translate(-10,-10) scale(1,1)"><rect fill="#C0C0C0" stroke="none" x="376.739501953125" y="27" width="79" height="44" opacity="0.2"></rect></g><g transform="translate(-10,-10) scale(1,1)"><rect fill="#ffffff" stroke="none" x="369.739501953125" y="20" width="79" height="44"></rect></g><g transform="translate(-10,-10) scale(1,1)"><path fill="none" stroke="#000000" d="M 369.739501953125 20 L 448.739501953125 20 L 448.739501953125 64 L 369.739501953125 64 L 369.739501953125 20 Z Z" stroke-miterlimit="10"></path></g><g transform="translate(-10,-10) scale(1,1)"><g><path fill="none" stroke="none"></path><text fill="#000000" stroke="none" font-family="Arial" font-size="13px" font-style="normal" font-weight="bold" text-decoration="none" x="377.239501953125" y="39.5">PlaneState</text></g></g><g transform="translate(-10,-10) scale(1,1)"><path fill="none" stroke="#000000" d="M 342 147 Q 296 80 296 65" stroke-miterlimit="10"></path></g><g transform="translate(-10,-10) scale(1,1)"><path fill="none" stroke="#000000" d="M 300.209517756016 75.16267485762415 L 296 65 L 291.790482243984 75.16267485762415" stroke-miterlimit="10"></path></g><g transform="translate(-10,-10) scale(1,1)"><path fill="none" stroke="#000000" d="M 360 147 Q 408 80 408 65" stroke-miterlimit="10"></path></g><g transform="translate(-10,-10) scale(1,1)"><path fill="none" stroke="#000000" d="M 412.209517756016 75.16267485762415 L 408 65 L 403.790482243984 75.16267485762415" stroke-miterlimit="10"></path></g><g transform="translate(-10,-10) scale(1,1)"><path fill="#C0C0C0" stroke="none" d="M 716.6336669921875 154.75 C 716.6336669921875 139.4240968 729.0577637921875 127 744.3836669921875 127 C 759.7095701921875 127 772.1336669921875 139.4240968 772.1336669921875 154.75 C 772.1336669921875 170.0759032 759.7095701921875 182.5 744.3836669921875 182.5 C 729.0577637921875 182.5 716.6336669921875 170.0759032 716.6336669921875 154.75 Z" opacity="0.2"></path></g><g transform="translate(-10,-10) scale(1,1)"><path fill="none" stroke="#000000" d="M 762.9245602164776 137.10153155370855 A 27.75 27.75 0 0 1 711.0754397835224 156.89846844629145" stroke-miterlimit="10"></path></g><g transform="translate(-10,-10) scale(1,1)"><path fill="none" stroke="#000000" d="M 753.5801067003595 124.74775153372818 A 27.75 27.75 0 0 1 720.4198932996405 169.25224846627182" stroke-miterlimit="10"></path></g><g transform="translate(-10,-10) scale(1,1)"><path fill="#ffffff" stroke="none" d="M 712.6336669921875 147.75 C 712.6336669921875 134.0809512 723.7146181921875 123 737.3836669921875 123 C 751.0527157921875 123 762.1336669921875 134.0809512 762.1336669921875 147.75 C 762.1336669921875 161.4190488 751.0527157921875 172.5 737.3836669921875 172.5 C 723.7146181921875 172.5 712.6336669921875 161.4190488 712.6336669921875 147.75 Z"></path></g><g transform="translate(-10,-10) scale(1,1)"><path fill="none" stroke="#000000" d="M 712.6336669921875 147.75 C 712.6336669921875 134.0809512 723.7146181921875 123 737.3836669921875 123 C 751.0527157921875 123 762.1336669921875 134.0809512 762.1336669921875 147.75 C 762.1336669921875 161.4190488 751.0527157921875 172.5 737.3836669921875 172.5 C 723.7146181921875 172.5 712.6336669921875 161.4190488 712.6336669921875 147.75 Z" stroke-miterlimit="10"></path></g><g transform="translate(-10,-10) scale(1,1)"><g><path fill="none" stroke="none"></path><text fill="#000000" stroke="none" font-family="Arial" font-size="13px" font-style="normal" font-weight="bold" text-decoration="none" x="706.8836669921875" y="195">Networked</text></g></g><g transform="translate(-10,-10) scale(1,1)"><path fill="none" stroke="#000000" d="M 597 287 Q 645 240 712.1272727272727 175.5" stroke-miterlimit="10"></path></g><g transform="translate(-10,-10) scale(1,1)"><path fill="none" stroke="#000000" d="M 261 499 Q 702 465 702 352.5 Q 702 240 727.6727272727272 175.5" stroke-miterlimit="10"></path></g><g transform="translate(-10,-10) scale(1,1)"><path fill="none" stroke="#000000" d="M 449 292 Q 600 240 709.6336669921875 169.9877197265625" stroke-miterlimit="10"></path></g><g transform="translate(-10,-10) scale(1,1)"><rect fill="#C0C0C0" stroke="none" x="738.8768310546875" y="297.5" width="95" height="44" opacity="0.2"></rect></g><g transform="translate(-10,-10) scale(1,1)"><rect fill="#ffffff" stroke="none" x="731.8768310546875" y="290.5" width="95" height="44"></rect></g><g transform="translate(-10,-10) scale(1,1)"><path fill="none" stroke="#000000" d="M 731.8768310546875 290.5 L 826.8768310546875 290.5 L 826.8768310546875 334.5 L 731.8768310546875 334.5 L 731.8768310546875 290.5 Z Z" stroke-miterlimit="10"></path></g><g transform="translate(-10,-10) scale(1,1)"><g><path fill="none" stroke="none"></path><text fill="#000000" stroke="none" font-family="Arial" font-size="13px" font-style="normal" font-weight="bold" text-decoration="none" x="739.8768310546875" y="310">ServerPacket</text></g></g><g transform="translate(-10,-10) scale(1,1)"><rect fill="#C0C0C0" stroke="none" x="861.2757568359375" y="297.5" width="91" height="44" opacity="0.2"></rect></g><g transform="translate(-10,-10) scale(1,1)"><rect fill="#ffffff" stroke="none" x="854.2757568359375" y="290.5" width="91" height="44"></rect></g><g transform="translate(-10,-10) scale(1,1)"><path fill="none" stroke="#000000" d="M 854.2757568359375 290.5 L 945.2757568359375 290.5 L 945.2757568359375 334.5 L 854.2757568359375 334.5 L 854.2757568359375 290.5 Z Z" stroke-miterlimit="10"></path></g><g transform="translate(-10,-10) scale(1,1)"><g><path fill="none" stroke="none"></path><text fill="#000000" stroke="none" font-family="Arial" font-size="13px" font-style="normal" font-weight="bold" text-decoration="none" x="862.7757568359375" y="310">ClientPacket</text></g></g><g transform="translate(-10,-10) scale(1,1)"><rect fill="#C0C0C0" stroke="none" x="869.385498046875" y="27" width="84" height="44" opacity="0.2"></rect></g><g transform="translate(-10,-10) scale(1,1)"><rect fill="#ffffff" stroke="none" x="862.385498046875" y="20" width="84" height="44"></rect></g><g transform="translate(-10,-10) scale(1,1)"><path fill="none" stroke="#000000" d="M 862.385498046875 20 L 946.385498046875 20 L 946.385498046875 64 L 862.385498046875 64 L 862.385498046875 20 Z Z" stroke-miterlimit="10"></path></g><g transform="translate(-10,-10) scale(1,1)"><g><path fill="none" stroke="none"></path><text fill="#000000" stroke="none" font-family="Arial" font-size="13px" font-style="normal" font-weight="bold" text-decoration="none" x="870.385498046875" y="39.5">ArenaEvent</text></g></g><g transform="translate(-10,-10) scale(1,1)"><path fill="none" stroke="#000000" d="M 554 287 Q 551 240 551 160 Q 551 80 861 47" stroke-miterlimit="10"></path></g><g transform="translate(-10,-10) scale(1,1)"><path fill="none" stroke="#000000" d="M 851.3400141295539 52.26162265682193 L 861 47 L 850.4488294241578 43.88988754552489" stroke-miterlimit="10"></path></g><g transform="translate(-10,-10) scale(1,1)"><path fill="#C0C0C0" stroke="none" d="M 923.8411865234375 154 C 923.8411865234375 147.6487248 928.9899113234375 142.5 935.3411865234375 142.5 C 941.6924617234375 142.5 946.8411865234375 147.6487248 946.8411865234375 154 C 946.8411865234375 160.3512752 941.6924617234375 165.5 935.3411865234375 165.5 C 928.9899113234375 165.5 923.8411865234375 160.3512752 923.8411865234375 154 Z" opacity="0.2"></path></g><g transform="translate(-10,-10) scale(1,1)"><path fill="#ffffff" stroke="none" d="M 916.8411865234375 147 C 916.8411865234375 140.6487248 921.9899113234375 135.5 928.3411865234375 135.5 C 934.6924617234375 135.5 939.8411865234375 140.6487248 939.8411865234375 147 C 939.8411865234375 153.3512752 934.6924617234375 158.5 928.3411865234375 158.5 C 921.9899113234375 158.5 916.8411865234375 153.3512752 916.8411865234375 147 Z"></path></g><g transform="translate(-10,-10) scale(1,1)"><path fill="none" stroke="#000000" d="M 916.8411865234375 147 C 916.8411865234375 140.6487248 921.9899113234375 135.5 928.3411865234375 135.5 C 934.6924617234375 135.5 939.8411865234375 140.6487248 939.8411865234375 147 C 939.8411865234375 153.3512752 934.6924617234375 158.5 928.3411865234375 158.5 C 921.9899113234375 158.5 916.8411865234375 153.3512752 916.8411865234375 147 Z" stroke-miterlimit="10"></path></g><g transform="translate(-10,-10) scale(1,1)"><g><path fill="none" stroke="none"></path><text fill="#000000" stroke="none" font-family="Arial" font-size="13px" font-style="normal" font-weight="bold" text-decoration="none" x="891.8411865234375" y="178">ArenaLogger</text></g></g><g transform="translate(-10,-10) scale(1,1)"><path fill="none" stroke="#000000" d="M 928 135 Q 928 80 919 65" stroke-miterlimit="10"></path></g><g transform="translate(-10,-10) scale(1,1)"><path fill="none" stroke="#000000" d="M 927.8382847744828 71.54864277886242 L 919 65 L 920.6190213815926 75.88020081459648" stroke-miterlimit="10"></path></g><g transform="translate(-10,-10) scale(1,1)"><path fill="none" stroke="#000000" d="M 613 313 Q 928 240 928 185" stroke-miterlimit="10"></path></g><g transform="translate(-10,-10) scale(1,1)"><path fill="none" stroke="#000000" d="M 932.209517756016 195.16267485762415 L 928 185 L 923.790482243984 195.16267485762415" stroke-miterlimit="10"></path></g><g transform="translate(-10,-10) scale(1,1)"><path fill="none" stroke="#000000" d="M 779 290 Q 778 240 747.8818181818182 175.5" stroke-miterlimit="10"></path></g><g transform="translate(-10,-10) scale(1,1)"><path fill="none" stroke="#000000" d="M 899 290 Q 898 240 765.1336669921875 167.962340111826" stroke-miterlimit="10"></path></g><g transform="translate(-10,-10) scale(1,1)"><path fill="#C0C0C0" stroke="none" d="M 490.5 538.5 C 490.5 532.1487248 495.6487248 527 502 527 C 508.3512752 527 513.5 532.1487248 513.5 538.5 C 513.5 544.8512752 508.3512752 550 502 550 C 495.6487248 550 490.5 544.8512752 490.5 538.5 Z" opacity="0.2"></path></g><g transform="translate(-10,-10) scale(1,1)"><path fill="#ffffff" stroke="none" d="M 483.5 531.5 C 483.5 525.1487248 488.6487248 520 495 520 C 501.3512752 520 506.5 525.1487248 506.5 531.5 C 506.5 537.8512752 501.3512752 543 495 543 C 488.6487248 543 483.5 537.8512752 483.5 531.5 Z"></path></g><g transform="translate(-10,-10) scale(1,1)"><path fill="none" stroke="#000000" d="M 483.5 531.5 C 483.5 525.1487248 488.6487248 520 495 520 C 501.3512752 520 506.5 525.1487248 506.5 531.5 C 506.5 537.8512752 501.3512752 543 495 543 C 488.6487248 543 483.5 537.8512752 483.5 531.5 Z" stroke-miterlimit="10"></path></g><g transform="translate(-10,-10) scale(1,1)"><g><path fill="none" stroke="none"></path><text fill="#000000" stroke="none" font-family="Arial" font-size="13px" font-style="normal" font-weight="bold" text-decoration="none" x="448.5" y="562.5">PhysicsListener</text></g></g><g transform="translate(-10,-10) scale(1,1)"><path fill="none" stroke="#000000" d="M 206 326 L 462 519" stroke-miterlimit="10"></path></g><g transform="translate(-10,-10) scale(1,1)"><path fill="none" stroke="#000000" d="M 451.35099481782987 516.2434281017696 L 462 519 L 456.41920690486376 509.52082554072985" stroke-miterlimit="10"></path></g><g transform="translate(-10,-10) scale(1,1)"><path fill="none" stroke="#000000" d="M 261 450 L 483.5 528.9464285714286" stroke-miterlimit="10"></path></g><g transform="translate(-10,-10) scale(1,1)"><rect fill="#C0C0C0" stroke="none" x="1007" y="127" width="84" height="44" opacity="0.2"></rect></g><g transform="translate(-10,-10) scale(1,1)"><rect fill="#ffffff" stroke="none" x="1000" y="120" width="84" height="44"></rect></g><g transform="translate(-10,-10) scale(1,1)"><path fill="none" stroke="#000000" d="M 1000 120 L 1084 120 L 1084 164 L 1000 164 L 1000 120 Z Z" stroke-miterlimit="10"></path></g><g transform="translate(-10,-10) scale(1,1)"><g><path fill="none" stroke="none"></path><text fill="#000000" stroke="none" font-family="Arial" font-size="13px" font-style="normal" font-weight="bold" text-decoration="none" x="1008.5" y="139.5">ClientEvent</text></g></g><g transform="translate(-10,-10) scale(1,1)"><path fill="none" stroke="#000000" d="M 1010 119 L 936 65" stroke-miterlimit="10"></path></g><g transform="translate(-10,-10) scale(1,1)"><path fill="none" stroke="#000000" d="M 946.6906972730626 67.59017215947766 L 936 65 L 941.7279362389878 74.39099283580231" stroke-miterlimit="10"></path></g><g transform="translate(-10,-10) scale(1,1)"><rect fill="#C0C0C0" stroke="none" x="1167" y="103" width="88" height="44" opacity="0.2"></rect></g><g transform="translate(-10,-10) scale(1,1)"><rect fill="#ffffff" stroke="none" x="1160" y="96" width="88" height="44"></rect></g><g transform="translate(-10,-10) scale(1,1)"><path fill="none" stroke="#000000" d="M 1160 96 L 1248 96 L 1248 140 L 1160 140 L 1160 96 Z Z" stroke-miterlimit="10"></path></g><g transform="translate(-10,-10) scale(1,1)"><g><path fill="none" stroke="none"></path><text fill="#000000" stroke="none" font-family="Arial" font-size="13px" font-style="normal" font-weight="bold" text-decoration="none" x="1168" y="115.5">ServerEvent</text></g></g><g transform="translate(-10,-10) scale(1,1)"><path fill="none" stroke="#000000" d="M 1159 107 L 947 53" stroke-miterlimit="10"></path></g><g transform="translate(-10,-10) scale(1,1)"><path fill="none" stroke="#000000" d="M 957.8872734585183 51.42924329081676 L 947 53 L 955.8091576118084 59.58777217049283" stroke-miterlimit="10"></path></g></g></svg>