<?xml version="1.0" encoding="UTF-8"?><svg xmlns="http://www.w3.org/2000/svg" xmlns:xlink="http://www.w3.org/1999/xlink" fill-opacity="1" color-rendering="auto" color-interpolation="auto" text-rendering="auto" stroke="black" stroke-linecap="square" width="675" stroke-miterlimit="10" shape-rendering="auto" stroke-opacity="1" fill="black" stroke-dasharray="none" font-weight="normal" stroke-width="1" height="602" font-family="'Dialog'" font-style="normal" stroke-linejoin="miter" font-size="12px" stroke-dashoffset="0" image-rendering="auto">
  <!--Generated by ySVG 2.5-->
  <defs id="genericDefs"/>
  <g>
    <defs id="defs1">
      <linearGradient x1="387.5" gradientUnits="userSpaceOnUse" x2="612.5" y1="63.6875" y2="232.6875" id="linearGradient1" spreadMethod="reflect">
        <stop stop-opacity="1" stop-color="rgb(232,238,247)" offset="0%"/>
        <stop stop-opacity="1" stop-color="rgb(183,201,227)" offset="100%"/>
      </linearGradient>
      <clipPath clipPathUnits="userSpaceOnUse" id="clipPath1">
        <path d="M0 0 L675 0 L675 602 L0 602 L0 0 Z"/>
      </clipPath>
      <clipPath clipPathUnits="userSpaceOnUse" id="clipPath2">
        <path d="M2 48 L677 48 L677 650 L2 650 L2 48 Z"/>
      </clipPath>
      <clipPath clipPathUnits="userSpaceOnUse" id="clipPath3">
        <path d="M209 270 L209 298 L309 298 L309 270 Z"/>
      </clipPath>
      <clipPath clipPathUnits="userSpaceOnUse" id="clipPath4">
        <path d="M432 438 L432 466 L532 466 L532 438 Z"/>
      </clipPath>
      <clipPath clipPathUnits="userSpaceOnUse" id="clipPath5">
        <path d="M343 370 L343 398 L443 398 L443 370 Z"/>
      </clipPath>
      <clipPath clipPathUnits="userSpaceOnUse" id="clipPath6">
        <path d="M302 549 L302 577 L402 577 L402 549 Z"/>
      </clipPath>
      <clipPath clipPathUnits="userSpaceOnUse" id="clipPath7">
        <path d="M241 607 L241 635 L341 635 L341 607 Z"/>
      </clipPath>
      <clipPath clipPathUnits="userSpaceOnUse" id="clipPath8">
        <path d="M374 607 L374 635 L474 635 L474 607 Z"/>
      </clipPath>
      <clipPath clipPathUnits="userSpaceOnUse" id="clipPath9">
        <path d="M302 491 L302 519 L402 519 L402 491 Z"/>
      </clipPath>
      <clipPath clipPathUnits="userSpaceOnUse" id="clipPath10">
        <path d="M166 491 L166 519 L266 519 L266 491 Z"/>
      </clipPath>
      <clipPath clipPathUnits="userSpaceOnUse" id="clipPath11">
        <path d="M562 491 L562 519 L662 519 L662 491 Z"/>
      </clipPath>
      <clipPath clipPathUnits="userSpaceOnUse" id="clipPath12">
        <path d="M432 506 L432 534 L532 534 L532 506 Z"/>
      </clipPath>
      <clipPath clipPathUnits="userSpaceOnUse" id="clipPath13">
        <path d="M37 414 L37 442 L137 442 L137 414 Z"/>
      </clipPath>
      <clipPath clipPathUnits="userSpaceOnUse" id="clipPath14">
        <path d="M17 349 L17 377 L117 377 L117 349 Z"/>
      </clipPath>
      <clipPath clipPathUnits="userSpaceOnUse" id="clipPath15">
        <path d="M191 127 L191 155 L291 155 L291 127 Z"/>
      </clipPath>
      <clipPath clipPathUnits="userSpaceOnUse" id="clipPath16">
        <path d="M256 69 L256 97 L356 97 L356 69 Z"/>
      </clipPath>
      <clipPath clipPathUnits="userSpaceOnUse" id="clipPath17">
        <path d="M126 69 L126 97 L226 97 L226 69 Z"/>
      </clipPath>
      <clipPath clipPathUnits="userSpaceOnUse" id="clipPath18">
        <path d="M410 179 L410 207 L510 207 L510 179 Z"/>
      </clipPath>
      <clipPath clipPathUnits="userSpaceOnUse" id="clipPath19">
        <path d="M529 158 L529 186 L629 186 L629 158 Z"/>
      </clipPath>
      <clipPath clipPathUnits="userSpaceOnUse" id="clipPath20">
        <path d="M410 100 L410 128 L510 128 L510 100 Z"/>
      </clipPath>
    </defs>
    <g fill="white" text-rendering="geometricPrecision" shape-rendering="geometricPrecision" transform="translate(-2,-48)" stroke="white">
      <rect x="2" width="675" height="602" y="48" clip-path="url(#clipPath2)" stroke="none"/>
    </g>
    <g fill="url(#linearGradient1)" text-rendering="geometricPrecision" shape-rendering="geometricPrecision" transform="matrix(1,0,0,1,-2,-48)" stroke="url(#linearGradient1)">
      <path d="M415.625 153.2575 C387.5 105.9375 415.625 63.6875 461.75 94.1075 C461.75 63.6875 538.25 63.6875 538.25 94.1075 C584.375 63.6875 612.5 105.9375 584.375 143.1175 C612.5 190.4375 584.375 232.6875 549.5 202.2675 C538.25 232.6875 461.75 232.6875 473 202.2675 C415.625 232.6875 387.5 190.4375 415.625 153.2575 Z" stroke="none" clip-path="url(#clipPath2)"/>
    </g>
    <g text-rendering="geometricPrecision" stroke-miterlimit="1.45" shape-rendering="geometricPrecision" transform="matrix(1,0,0,1,-2,-48)" stroke-linecap="butt">
      <path fill="none" d="M415.625 153.2575 C387.5 105.9375 415.625 63.6875 461.75 94.1075 C461.75 63.6875 538.25 63.6875 538.25 94.1075 C584.375 63.6875 612.5 105.9375 584.375 143.1175 C612.5 190.4375 584.375 232.6875 549.5 202.2675 C538.25 232.6875 461.75 232.6875 473 202.2675 C415.625 232.6875 387.5 190.4375 415.625 153.2575 Z" clip-path="url(#clipPath2)"/>
      <text x="477.9893" xml:space="preserve" y="152.9014" clip-path="url(#clipPath2)" font-family="sans-serif" stroke="none">External</text>
    </g>
    <g fill="rgb(255,204,0)" text-rendering="geometricPrecision" shape-rendering="geometricPrecision" transform="matrix(1,0,0,1,-2,-48)" stroke="rgb(255,204,0)">
      <ellipse rx="55" ry="25" clip-path="url(#clipPath2)" cx="398" cy="293.3438" stroke="none"/>
    </g>
    <g font-size="13px" stroke-linecap="butt" transform="matrix(1,0,0,1,-2,-48)" text-rendering="geometricPrecision" font-family="sans-serif" shape-rendering="geometricPrecision" stroke-miterlimit="1.45">
      <text x="365.8491" xml:space="preserve" y="298.4504" clip-path="url(#clipPath2)" stroke="none">Subsystem</text>
      <ellipse rx="55" fill="none" ry="25" clip-path="url(#clipPath2)" cx="398" cy="293.3438"/>
    </g>
    <g fill="rgb(255,204,0)" text-rendering="geometricPrecision" shape-rendering="geometricPrecision" transform="matrix(1,0,0,1,-2,-48)" stroke="rgb(255,204,0)">
      <rect x="210" width="98" height="26" y="271" clip-path="url(#clipPath2)" stroke="none"/>
      <rect x="209" y="270" clip-path="url(#clipPath2)" fill="yellow" width="1" height="28" stroke="none"/>
      <rect x="210" y="270" clip-path="url(#clipPath2)" fill="yellow" width="98" height="1" stroke="none"/>
      <rect x="210" y="297" clip-path="url(#clipPath2)" fill="rgb(178,142,0)" width="99" height="1" stroke="none"/>
      <rect x="308" y="270" clip-path="url(#clipPath2)" fill="rgb(178,142,0)" width="1" height="27" stroke="none"/>
    </g>
    <g font-size="13px" stroke-linecap="butt" transform="matrix(1,0,0,1,-2,-48)" text-rendering="geometricPrecision" font-family="sans-serif" shape-rendering="geometricPrecision" font-weight="bold" stroke-miterlimit="1.45">
      <text x="240.5759" xml:space="preserve" y="288.5698" clip-path="url(#clipPath3)" stroke="none">Arena</text>
    </g>
    <g fill="rgb(255,204,0)" text-rendering="geometricPrecision" shape-rendering="geometricPrecision" transform="matrix(1,0,0,1,-2,-48)" stroke="rgb(255,204,0)">
      <rect x="433" width="98" height="26" y="439" clip-path="url(#clipPath2)" stroke="none"/>
      <rect x="432" y="438" clip-path="url(#clipPath2)" fill="yellow" width="1" height="28" stroke="none"/>
      <rect x="433" y="438" clip-path="url(#clipPath2)" fill="yellow" width="98" height="1" stroke="none"/>
      <rect x="433" y="465" clip-path="url(#clipPath2)" fill="rgb(178,142,0)" width="99" height="1" stroke="none"/>
      <rect x="531" y="438" clip-path="url(#clipPath2)" fill="rgb(178,142,0)" width="1" height="27" stroke="none"/>
    </g>
    <g font-size="13px" stroke-linecap="butt" transform="matrix(1,0,0,1,-2,-48)" text-rendering="geometricPrecision" font-family="sans-serif" shape-rendering="geometricPrecision" font-weight="bold" stroke-miterlimit="1.45">
      <text x="470.4346" xml:space="preserve" y="456.0698" clip-path="url(#clipPath4)" stroke="none">Sky</text>
    </g>
    <g fill="rgb(255,204,0)" text-rendering="geometricPrecision" shape-rendering="geometricPrecision" transform="matrix(1,0,0,1,-2,-48)" stroke="rgb(255,204,0)">
      <rect x="344" width="98" height="26" y="371" clip-path="url(#clipPath2)" stroke="none"/>
      <rect x="343" y="370" clip-path="url(#clipPath2)" fill="yellow" width="1" height="28" stroke="none"/>
      <rect x="344" y="370" clip-path="url(#clipPath2)" fill="yellow" width="98" height="1" stroke="none"/>
      <rect x="344" y="397" clip-path="url(#clipPath2)" fill="rgb(178,142,0)" width="99" height="1" stroke="none"/>
      <rect x="442" y="370" clip-path="url(#clipPath2)" fill="rgb(178,142,0)" width="1" height="27" stroke="none"/>
    </g>
    <g font-size="13px" stroke-linecap="butt" transform="matrix(1,0,0,1,-2,-48)" text-rendering="geometricPrecision" font-family="sans-serif" shape-rendering="geometricPrecision" font-weight="bold" stroke-miterlimit="1.45">
      <text x="359.7637" xml:space="preserve" y="388.0698" clip-path="url(#clipPath5)" stroke="none">SkyHandle</text>
    </g>
    <g fill="rgb(255,204,0)" text-rendering="geometricPrecision" shape-rendering="geometricPrecision" transform="matrix(1,0,0,1,-2,-48)" stroke="rgb(255,204,0)">
      <rect x="303" width="98" height="26" y="550" clip-path="url(#clipPath2)" stroke="none"/>
      <rect x="302" y="549" clip-path="url(#clipPath2)" fill="yellow" width="1" height="28" stroke="none"/>
      <rect x="303" y="549" clip-path="url(#clipPath2)" fill="yellow" width="98" height="1" stroke="none"/>
      <rect x="303" y="576" clip-path="url(#clipPath2)" fill="rgb(178,142,0)" width="99" height="1" stroke="none"/>
      <rect x="401" y="549" clip-path="url(#clipPath2)" fill="rgb(178,142,0)" width="1" height="27" stroke="none"/>
    </g>
    <g font-size="13px" stroke-linecap="butt" transform="matrix(1,0,0,1,-2,-48)" text-rendering="geometricPrecision" font-family="sans-serif" shape-rendering="geometricPrecision" font-weight="bold" stroke-miterlimit="1.45">
      <text x="334.6582" xml:space="preserve" y="567.0698" clip-path="url(#clipPath6)" stroke="none">Plane</text>
    </g>
    <g fill="rgb(255,204,0)" text-rendering="geometricPrecision" shape-rendering="geometricPrecision" transform="matrix(1,0,0,1,-2,-48)" stroke="rgb(255,204,0)">
      <rect x="242" width="98" height="26" y="608" clip-path="url(#clipPath2)" stroke="none"/>
      <rect x="241" y="607" clip-path="url(#clipPath2)" fill="yellow" width="1" height="28" stroke="none"/>
      <rect x="242" y="607" clip-path="url(#clipPath2)" fill="yellow" width="98" height="1" stroke="none"/>
      <rect x="242" y="634" clip-path="url(#clipPath2)" fill="rgb(178,142,0)" width="99" height="1" stroke="none"/>
      <rect x="340" y="607" clip-path="url(#clipPath2)" fill="rgb(178,142,0)" width="1" height="27" stroke="none"/>
    </g>
    <g font-size="13px" stroke-linecap="butt" transform="matrix(1,0,0,1,-2,-48)" text-rendering="geometricPrecision" font-family="sans-serif" shape-rendering="geometricPrecision" font-weight="bold" stroke-miterlimit="1.45">
      <text x="257.7637" xml:space="preserve" y="625.0698" clip-path="url(#clipPath7)" stroke="none">PlaneState</text>
    </g>
    <g fill="rgb(255,204,0)" text-rendering="geometricPrecision" shape-rendering="geometricPrecision" transform="matrix(1,0,0,1,-2,-48)" stroke="rgb(255,204,0)">
      <rect x="375" width="98" height="26" y="608" clip-path="url(#clipPath2)" stroke="none"/>
      <rect x="374" y="607" clip-path="url(#clipPath2)" fill="yellow" width="1" height="28" stroke="none"/>
      <rect x="375" y="607" clip-path="url(#clipPath2)" fill="yellow" width="98" height="1" stroke="none"/>
      <rect x="375" y="634" clip-path="url(#clipPath2)" fill="rgb(178,142,0)" width="99" height="1" stroke="none"/>
      <rect x="473" y="607" clip-path="url(#clipPath2)" fill="rgb(178,142,0)" width="1" height="27" stroke="none"/>
    </g>
    <g font-size="13px" stroke-linecap="butt" transform="matrix(1,0,0,1,-2,-48)" text-rendering="geometricPrecision" font-family="sans-serif" shape-rendering="geometricPrecision" font-weight="bold" stroke-miterlimit="1.45">
      <text x="385" xml:space="preserve" y="625.0698" clip-path="url(#clipPath8)" stroke="none">PlaneTuning</text>
    </g>
    <g fill="rgb(255,204,0)" text-rendering="geometricPrecision" shape-rendering="geometricPrecision" transform="matrix(1,0,0,1,-2,-48)" stroke="rgb(255,204,0)">
      <rect x="303" width="98" height="26" y="492" clip-path="url(#clipPath2)" stroke="none"/>
      <rect x="302" y="491" clip-path="url(#clipPath2)" fill="yellow" width="1" height="28" stroke="none"/>
      <rect x="303" y="491" clip-path="url(#clipPath2)" fill="yellow" width="98" height="1" stroke="none"/>
      <rect x="303" y="518" clip-path="url(#clipPath2)" fill="rgb(178,142,0)" width="99" height="1" stroke="none"/>
      <rect x="401" y="491" clip-path="url(#clipPath2)" fill="rgb(178,142,0)" width="1" height="27" stroke="none"/>
    </g>
    <g font-size="13px" stroke-linecap="butt" transform="matrix(1,0,0,1,-2,-48)" text-rendering="geometricPrecision" font-family="sans-serif" shape-rendering="geometricPrecision" font-weight="bold" stroke-miterlimit="1.45">
      <text x="312.6318" xml:space="preserve" y="509.0698" clip-path="url(#clipPath9)" stroke="none">Participation</text>
    </g>
    <g fill="rgb(255,204,0)" text-rendering="geometricPrecision" shape-rendering="geometricPrecision" transform="matrix(1,0,0,1,-2,-48)" stroke="rgb(255,204,0)">
      <rect x="167" width="98" height="26" y="492" clip-path="url(#clipPath2)" stroke="none"/>
      <rect x="166" y="491" clip-path="url(#clipPath2)" fill="yellow" width="1" height="28" stroke="none"/>
      <rect x="167" y="491" clip-path="url(#clipPath2)" fill="yellow" width="98" height="1" stroke="none"/>
      <rect x="167" y="518" clip-path="url(#clipPath2)" fill="rgb(178,142,0)" width="99" height="1" stroke="none"/>
      <rect x="265" y="491" clip-path="url(#clipPath2)" fill="rgb(178,142,0)" width="1" height="27" stroke="none"/>
    </g>
    <g font-size="13px" stroke-linecap="butt" transform="matrix(1,0,0,1,-2,-48)" text-rendering="geometricPrecision" font-family="sans-serif" shape-rendering="geometricPrecision" font-weight="bold" stroke-miterlimit="1.45">
      <text x="201.1941" xml:space="preserve" y="509.0698" clip-path="url(#clipPath10)" stroke="none">Prop</text>
    </g>
    <g fill="rgb(255,204,0)" text-rendering="geometricPrecision" shape-rendering="geometricPrecision" transform="matrix(1,0,0,1,-2,-48)" stroke="rgb(255,204,0)">
      <rect x="563" width="98" height="26" y="492" clip-path="url(#clipPath2)" stroke="none"/>
      <rect x="562" y="491" clip-path="url(#clipPath2)" fill="yellow" width="1" height="28" stroke="none"/>
      <rect x="563" y="491" clip-path="url(#clipPath2)" fill="yellow" width="98" height="1" stroke="none"/>
      <rect x="563" y="518" clip-path="url(#clipPath2)" fill="rgb(178,142,0)" width="99" height="1" stroke="none"/>
      <rect x="661" y="491" clip-path="url(#clipPath2)" fill="rgb(178,142,0)" width="1" height="27" stroke="none"/>
    </g>
    <g font-size="13px" stroke-linecap="butt" transform="matrix(1,0,0,1,-2,-48)" text-rendering="geometricPrecision" font-family="sans-serif" shape-rendering="geometricPrecision" font-weight="bold" stroke-miterlimit="1.45">
      <text x="599" xml:space="preserve" y="509.0698" clip-path="url(#clipPath11)" stroke="none">Map</text>
    </g>
    <g fill="rgb(255,204,0)" text-rendering="geometricPrecision" shape-rendering="geometricPrecision" transform="matrix(1,0,0,1,-2,-48)" stroke="rgb(255,204,0)">
      <rect x="433" width="98" height="26" y="507" clip-path="url(#clipPath2)" stroke="none"/>
      <rect x="432" y="506" clip-path="url(#clipPath2)" fill="yellow" width="1" height="28" stroke="none"/>
      <rect x="433" y="506" clip-path="url(#clipPath2)" fill="yellow" width="98" height="1" stroke="none"/>
      <rect x="433" y="533" clip-path="url(#clipPath2)" fill="rgb(178,142,0)" width="99" height="1" stroke="none"/>
      <rect x="531" y="506" clip-path="url(#clipPath2)" fill="rgb(178,142,0)" width="1" height="27" stroke="none"/>
    </g>
    <g font-size="13px" stroke-linecap="butt" transform="matrix(1,0,0,1,-2,-48)" text-rendering="geometricPrecision" font-family="sans-serif" shape-rendering="geometricPrecision" font-weight="bold" stroke-miterlimit="1.45">
      <text x="457.4282" xml:space="preserve" y="524.0698" clip-path="url(#clipPath12)" stroke="none">Physics</text>
    </g>
    <g fill="rgb(255,204,0)" text-rendering="geometricPrecision" shape-rendering="geometricPrecision" transform="matrix(1,0,0,1,-2,-48)" stroke="rgb(255,204,0)">
      <ellipse rx="55" ry="25" clip-path="url(#clipPath2)" cx="211" cy="384" stroke="none"/>
    </g>
    <g font-size="13px" stroke-linecap="butt" transform="matrix(1,0,0,1,-2,-48)" text-rendering="geometricPrecision" font-family="sans-serif" shape-rendering="geometricPrecision" stroke-miterlimit="1.45">
      <text x="179.9314" xml:space="preserve" y="389.1067" clip-path="url(#clipPath2)" stroke="none">Networked</text>
      <ellipse rx="55" fill="none" ry="25" clip-path="url(#clipPath2)" cx="211" cy="384"/>
    </g>
    <g fill="rgb(255,204,0)" text-rendering="geometricPrecision" shape-rendering="geometricPrecision" transform="matrix(1,0,0,1,-2,-48)" stroke="rgb(255,204,0)">
      <rect x="38" width="98" height="26" y="415" clip-path="url(#clipPath2)" stroke="none"/>
      <rect x="37" y="414" clip-path="url(#clipPath2)" fill="yellow" width="1" height="28" stroke="none"/>
      <rect x="38" y="414" clip-path="url(#clipPath2)" fill="yellow" width="98" height="1" stroke="none"/>
      <rect x="38" y="441" clip-path="url(#clipPath2)" fill="rgb(178,142,0)" width="99" height="1" stroke="none"/>
      <rect x="136" y="414" clip-path="url(#clipPath2)" fill="rgb(178,142,0)" width="1" height="27" stroke="none"/>
    </g>
    <g font-size="13px" stroke-linecap="butt" transform="matrix(1,0,0,1,-2,-48)" text-rendering="geometricPrecision" font-family="sans-serif" shape-rendering="geometricPrecision" font-weight="bold" stroke-miterlimit="1.45">
      <text x="47.9841" xml:space="preserve" y="432.0698" clip-path="url(#clipPath13)" stroke="none">ClientPacket</text>
    </g>
    <g fill="rgb(255,204,0)" text-rendering="geometricPrecision" shape-rendering="geometricPrecision" transform="matrix(1,0,0,1,-2,-48)" stroke="rgb(255,204,0)">
      <rect x="18" width="98" height="26" y="350" clip-path="url(#clipPath2)" stroke="none"/>
      <rect x="17" y="349" clip-path="url(#clipPath2)" fill="yellow" width="1" height="28" stroke="none"/>
      <rect x="18" y="349" clip-path="url(#clipPath2)" fill="yellow" width="98" height="1" stroke="none"/>
      <rect x="18" y="376" clip-path="url(#clipPath2)" fill="rgb(178,142,0)" width="99" height="1" stroke="none"/>
      <rect x="116" y="349" clip-path="url(#clipPath2)" fill="rgb(178,142,0)" width="1" height="27" stroke="none"/>
    </g>
    <g font-size="13px" stroke-linecap="butt" transform="matrix(1,0,0,1,-2,-48)" text-rendering="geometricPrecision" font-family="sans-serif" shape-rendering="geometricPrecision" font-weight="bold" stroke-miterlimit="1.45">
      <text x="25.8005" xml:space="preserve" y="367.0698" clip-path="url(#clipPath14)" stroke="none">ServerPacket</text>
    </g>
    <g fill="rgb(255,204,0)" text-rendering="geometricPrecision" shape-rendering="geometricPrecision" transform="matrix(1,0,0,1,-2,-48)" stroke="rgb(255,204,0)">
      <ellipse rx="55" ry="25" clip-path="url(#clipPath2)" cx="241" cy="215.5" stroke="none"/>
    </g>
    <g font-size="13px" stroke-linecap="butt" transform="matrix(1,0,0,1,-2,-48)" text-rendering="geometricPrecision" font-family="sans-serif" shape-rendering="geometricPrecision" stroke-miterlimit="1.45">
      <text x="203.4155" xml:space="preserve" y="220.6067" clip-path="url(#clipPath2)" stroke="none">ArenaLogger</text>
      <ellipse rx="55" fill="none" ry="25" clip-path="url(#clipPath2)" cx="241" cy="215.5"/>
    </g>
    <g fill="rgb(255,204,0)" text-rendering="geometricPrecision" shape-rendering="geometricPrecision" transform="matrix(1,0,0,1,-2,-48)" stroke="rgb(255,204,0)">
      <rect x="192" width="98" height="26" y="128" clip-path="url(#clipPath2)" stroke="none"/>
      <rect x="191" y="127" clip-path="url(#clipPath2)" fill="yellow" width="1" height="28" stroke="none"/>
      <rect x="192" y="127" clip-path="url(#clipPath2)" fill="yellow" width="98" height="1" stroke="none"/>
      <rect x="192" y="154" clip-path="url(#clipPath2)" fill="rgb(178,142,0)" width="99" height="1" stroke="none"/>
      <rect x="290" y="127" clip-path="url(#clipPath2)" fill="rgb(178,142,0)" width="1" height="27" stroke="none"/>
    </g>
    <g font-size="13px" stroke-linecap="butt" transform="matrix(1,0,0,1,-2,-48)" text-rendering="geometricPrecision" font-family="sans-serif" shape-rendering="geometricPrecision" font-weight="bold" stroke-miterlimit="1.45">
      <text x="204.8755" xml:space="preserve" y="145.0698" clip-path="url(#clipPath15)" stroke="none">ArenaEvent</text>
    </g>
    <g fill="rgb(255,204,0)" text-rendering="geometricPrecision" shape-rendering="geometricPrecision" transform="matrix(1,0,0,1,-2,-48)" stroke="rgb(255,204,0)">
      <rect x="257" width="98" height="26" y="70" clip-path="url(#clipPath2)" stroke="none"/>
      <rect x="256" y="69" clip-path="url(#clipPath2)" fill="yellow" width="1" height="28" stroke="none"/>
      <rect x="257" y="69" clip-path="url(#clipPath2)" fill="yellow" width="98" height="1" stroke="none"/>
      <rect x="257" y="96" clip-path="url(#clipPath2)" fill="rgb(178,142,0)" width="99" height="1" stroke="none"/>
      <rect x="355" y="69" clip-path="url(#clipPath2)" fill="rgb(178,142,0)" width="1" height="27" stroke="none"/>
    </g>
    <g font-size="13px" stroke-linecap="butt" transform="matrix(1,0,0,1,-2,-48)" text-rendering="geometricPrecision" font-family="sans-serif" shape-rendering="geometricPrecision" font-weight="bold" stroke-miterlimit="1.45">
      <text x="270.2437" xml:space="preserve" y="87.0698" clip-path="url(#clipPath16)" stroke="none">ClientEvent</text>
    </g>
    <g fill="rgb(255,204,0)" text-rendering="geometricPrecision" shape-rendering="geometricPrecision" transform="matrix(1,0,0,1,-2,-48)" stroke="rgb(255,204,0)">
      <rect x="127" width="98" height="26" y="70" clip-path="url(#clipPath2)" stroke="none"/>
      <rect x="126" y="69" clip-path="url(#clipPath2)" fill="yellow" width="1" height="28" stroke="none"/>
      <rect x="127" y="69" clip-path="url(#clipPath2)" fill="yellow" width="98" height="1" stroke="none"/>
      <rect x="127" y="96" clip-path="url(#clipPath2)" fill="rgb(178,142,0)" width="99" height="1" stroke="none"/>
      <rect x="225" y="69" clip-path="url(#clipPath2)" fill="rgb(178,142,0)" width="1" height="27" stroke="none"/>
    </g>
    <g font-size="13px" stroke-linecap="butt" transform="matrix(1,0,0,1,-2,-48)" text-rendering="geometricPrecision" font-family="sans-serif" shape-rendering="geometricPrecision" font-weight="bold" stroke-miterlimit="1.45">
      <text x="138.0601" xml:space="preserve" y="87.0698" clip-path="url(#clipPath17)" stroke="none">ServerEvent</text>
    </g>
    <g fill="rgb(255,204,0)" text-rendering="geometricPrecision" shape-rendering="geometricPrecision" transform="matrix(1,0,0,1,-2,-48)" stroke="rgb(255,204,0)">
      <rect x="411" width="98" height="26" y="180" clip-path="url(#clipPath2)" stroke="none"/>
      <rect x="410" y="179" clip-path="url(#clipPath2)" fill="yellow" width="1" height="28" stroke="none"/>
      <rect x="411" y="179" clip-path="url(#clipPath2)" fill="yellow" width="98" height="1" stroke="none"/>
      <rect x="411" y="206" clip-path="url(#clipPath2)" fill="rgb(178,142,0)" width="99" height="1" stroke="none"/>
      <rect x="509" y="179" clip-path="url(#clipPath2)" fill="rgb(178,142,0)" width="1" height="27" stroke="none"/>
    </g>
    <g font-size="13px" stroke-linecap="butt" transform="matrix(1,0,0,1,-2,-48)" text-rendering="geometricPrecision" font-family="sans-serif" shape-rendering="geometricPrecision" font-weight="bold" stroke-miterlimit="1.45">
      <text x="414.981" xml:space="preserve" y="197.3198" clip-path="url(#clipPath18)" stroke="none">RenderSystem</text>
    </g>
    <g fill="rgb(255,204,0)" text-rendering="geometricPrecision" shape-rendering="geometricPrecision" transform="matrix(1,0,0,1,-2,-48)" stroke="rgb(255,204,0)">
      <rect x="530" width="98" height="26" y="159" clip-path="url(#clipPath2)" stroke="none"/>
      <rect x="529" y="158" clip-path="url(#clipPath2)" fill="yellow" width="1" height="28" stroke="none"/>
      <rect x="530" y="158" clip-path="url(#clipPath2)" fill="yellow" width="98" height="1" stroke="none"/>
      <rect x="530" y="185" clip-path="url(#clipPath2)" fill="rgb(178,142,0)" width="99" height="1" stroke="none"/>
      <rect x="628" y="158" clip-path="url(#clipPath2)" fill="rgb(178,142,0)" width="1" height="27" stroke="none"/>
    </g>
    <g font-size="13px" stroke-linecap="butt" transform="matrix(1,0,0,1,-2,-48)" text-rendering="geometricPrecision" font-family="sans-serif" shape-rendering="geometricPrecision" font-weight="bold" stroke-miterlimit="1.45">
      <text x="559.2605" xml:space="preserve" y="176.0698" clip-path="url(#clipPath19)" stroke="none">Server</text>
    </g>
    <g fill="rgb(255,204,0)" text-rendering="geometricPrecision" shape-rendering="geometricPrecision" transform="matrix(1,0,0,1,-2,-48)" stroke="rgb(255,204,0)">
      <rect x="411" width="98" height="26" y="101" clip-path="url(#clipPath2)" stroke="none"/>
      <rect x="410" y="100" clip-path="url(#clipPath2)" fill="yellow" width="1" height="28" stroke="none"/>
      <rect x="411" y="100" clip-path="url(#clipPath2)" fill="yellow" width="98" height="1" stroke="none"/>
      <rect x="411" y="127" clip-path="url(#clipPath2)" fill="rgb(178,142,0)" width="99" height="1" stroke="none"/>
      <rect x="509" y="100" clip-path="url(#clipPath2)" fill="rgb(178,142,0)" width="1" height="27" stroke="none"/>
    </g>
    <g font-size="13px" stroke-linecap="butt" transform="matrix(1,0,0,1,-2,-48)" text-rendering="geometricPrecision" font-family="sans-serif" shape-rendering="geometricPrecision" font-weight="bold" stroke-miterlimit="1.45">
      <text x="428.3682" xml:space="preserve" y="118.0698" clip-path="url(#clipPath20)" stroke="none">DebugInfo</text>
      <path fill="none" d="M308.9871 287.6804 L343.531 289.8782" clip-path="url(#clipPath2)"/>
    </g>
    <g text-rendering="geometricPrecision" stroke-miterlimit="1.45" stroke-dasharray="6,2" shape-rendering="geometricPrecision" transform="matrix(1,0,0,1,-2,-48)" stroke-linecap="butt">
      <path fill="none" d="M474.5967 438.0169 L417.8874 330.9064" clip-path="url(#clipPath2)"/>
      <path fill="white" d="M410.8687 317.6498 L413.0527 334.5977 L423.658 328.9827 Z" clip-path="url(#clipPath2)" stroke="none"/>
      <path fill="none" stroke-dasharray="none" d="M410.8687 317.6498 L413.0527 334.5977 L423.658 328.9827 Z" clip-path="url(#clipPath2)"/>
      <path fill="none" d="M393.7739 369.9678 L395.7956 333.3131" clip-path="url(#clipPath2)"/>
      <path fill="white" d="M396.6216 318.3359 L389.7496 333.9812 L401.7314 334.6421 Z" clip-path="url(#clipPath2)" stroke="none"/>
      <path fill="none" stroke-dasharray="none" d="M396.6216 318.3359 L389.7496 333.9812 L401.7314 334.6421 Z" clip-path="url(#clipPath2)"/>
      <path fill="none" d="M411.3171 397.9951 L459.7005 434.9622" clip-path="url(#clipPath2)"/>
      <path d="M462.8789 437.3907 L456.9863 425.3375 L462.8789 437.3907 L449.7009 434.8728 Z" clip-path="url(#clipPath2)" stroke="none"/>
      <path fill="none" stroke-miterlimit="10" stroke-dasharray="none" d="M462.8789 437.3907 L456.9863 425.3375 L462.8789 437.3907 L449.7009 434.8728 Z" clip-path="url(#clipPath2)" stroke-linecap="square"/>
      <path fill="none" d="M337.2563 577.0186 L309.3271 603.5743" clip-path="url(#clipPath2)"/>
      <path d="M306.4283 606.3305 L319.2591 602.41 L306.4283 606.3305 L310.9903 593.7136 Z" clip-path="url(#clipPath2)" stroke="none"/>
      <path fill="none" stroke-miterlimit="10" stroke-dasharray="none" d="M306.4283 606.3305 L319.2591 602.41 L306.4283 606.3305 L310.9903 593.7136 Z" clip-path="url(#clipPath2)" stroke-linecap="square"/>
      <path fill="none" d="M369.4023 577.0186 L402.7512 603.8829" clip-path="url(#clipPath2)"/>
      <path d="M405.8662 606.3923 L400.2852 594.1918 L405.8662 606.3923 L392.7572 603.5368 Z" clip-path="url(#clipPath2)" stroke="none"/>
      <path fill="none" stroke-miterlimit="10" stroke-dasharray="none" d="M405.8662 606.3923 L400.2852 594.1918 L405.8662 606.3923 L392.7572 603.5368 Z" clip-path="url(#clipPath2)" stroke-linecap="square"/>
      <path fill="none" d="M447.6909 465.9875 L390.9489 489.1208" clip-path="url(#clipPath2)"/>
      <path d="M387.2448 490.631 L400.622 491.6566 L387.2448 490.631 L396.0917 480.5446 Z" clip-path="url(#clipPath2)" stroke="none"/>
      <path fill="none" stroke-miterlimit="10" stroke-dasharray="none" d="M387.2448 490.631 L400.622 491.6566 L387.2448 490.631 L396.0917 480.5446 Z" clip-path="url(#clipPath2)" stroke-linecap="square"/>
      <path fill="none" d="M352 519.0186 L352 544.041" clip-path="url(#clipPath2)"/>
      <path d="M352 548.041 L358 536.041 L352 548.041 L346 536.041 Z" clip-path="url(#clipPath2)" stroke="none"/>
      <path fill="none" stroke-miterlimit="10" stroke-dasharray="none" d="M352 548.041 L358 536.041 L352 548.041 L346 536.041 Z" clip-path="url(#clipPath2)" stroke-linecap="square"/>
      <path fill="none" d="M302.0293 505 L271.0297 505" clip-path="url(#clipPath2)"/>
      <path d="M267.0297 505 L279.0297 511 L267.0297 505 L279.0297 499 Z" clip-path="url(#clipPath2)" stroke="none"/>
      <path fill="none" stroke-miterlimit="10" stroke-dasharray="none" d="M267.0297 505 L279.0297 511 L267.0297 505 L279.0297 499 Z" clip-path="url(#clipPath2)" stroke-linecap="square"/>
      <path fill="none" d="M516.3091 465.9875 L573.0511 489.1208" clip-path="url(#clipPath2)"/>
      <path d="M576.7551 490.631 L567.9083 480.5446 L576.7551 490.631 L563.378 491.6566 Z" clip-path="url(#clipPath2)" stroke="none"/>
      <path fill="none" stroke-miterlimit="10" stroke-dasharray="none" d="M576.7551 490.631 L567.9083 480.5446 L576.7551 490.631 L563.378 491.6566 Z" clip-path="url(#clipPath2)" stroke-linecap="square"/>
      <path fill="none" d="M482 465.9785 L482 500.9934" clip-path="url(#clipPath2)"/>
      <path d="M482 504.9934 L488 492.9934 L482 504.9934 L476 492.9934 Z" clip-path="url(#clipPath2)" stroke="none"/>
      <path fill="none" stroke-miterlimit="10" stroke-dasharray="none" d="M482 504.9934 L488 492.9934 L482 504.9934 L476 492.9934 Z" clip-path="url(#clipPath2)" stroke-linecap="square"/>
      <path fill="none" d="M343.0122 384 L281 384" clip-path="url(#clipPath2)"/>
      <path fill="white" d="M266 384 L282 390 L282 378 Z" clip-path="url(#clipPath2)" stroke="none"/>
      <path fill="none" stroke-dasharray="none" d="M266 384 L282 390 L282 378 Z" clip-path="url(#clipPath2)"/>
      <path fill="none" d="M252.2383 298.5165 L229.2979 346.0701" clip-path="url(#clipPath2)"/>
      <path fill="white" d="M222.7804 359.5802 L235.1364 347.7764 L224.3283 342.5624 Z" clip-path="url(#clipPath2)" stroke="none"/>
      <path fill="none" stroke-dasharray="none" d="M222.7804 359.5802 L235.1364 347.7764 L224.3283 342.5624 Z" clip-path="url(#clipPath2)"/>
      <path fill="none" d="M335.7175 491.0271 L248.127 415.8608" clip-path="url(#clipPath2)"/>
      <path fill="white" d="M236.7439 406.0923 L244.9785 421.0653 L252.7933 411.9588 Z" clip-path="url(#clipPath2)" stroke="none"/>
      <path fill="none" stroke-dasharray="none" d="M236.7439 406.0923 L244.9785 421.0653 L252.7933 411.9588 Z" clip-path="url(#clipPath2)"/>
      <path fill="none" d="M126.4463 414.0029 L162.9338 401.0558" clip-path="url(#clipPath2)"/>
      <path d="M166.7035 399.7181 L153.3879 398.0765 L166.7035 399.7181 L157.4009 409.3856 Z" clip-path="url(#clipPath2)" stroke="none"/>
      <path fill="none" stroke-miterlimit="10" stroke-dasharray="none" d="M166.7035 399.7181 L153.3879 398.0765 L166.7035 399.7181 L157.4009 409.3856 Z" clip-path="url(#clipPath2)" stroke-linecap="square"/>
      <path fill="none" d="M117.0273 370.2957 L153.6817 375.6411" clip-path="url(#clipPath2)"/>
      <path d="M157.6398 376.2183 L146.6313 368.5494 L157.6398 376.2183 L144.8996 380.4238 Z" clip-path="url(#clipPath2)" stroke="none"/>
      <path fill="none" stroke-miterlimit="10" stroke-dasharray="none" d="M157.6398 376.2183 L146.6313 368.5494 L157.6398 376.2183 L144.8996 380.4238 Z" clip-path="url(#clipPath2)" stroke-linecap="square"/>
      <path fill="none" stroke-dasharray="none" d="M255.3525 270.5181 L247.4764 240.3261" clip-path="url(#clipPath2)"/>
      <path fill="none" d="M241 190.5 L241 159.9702" clip-path="url(#clipPath2)"/>
      <path d="M241 155.9702 L235 167.9702 L241 155.9702 L247 167.9702 Z" clip-path="url(#clipPath2)" stroke="none"/>
      <path fill="none" stroke-miterlimit="10" stroke-dasharray="none" d="M241 155.9702 L235 167.9702 L241 155.9702 L247 167.9702 Z" clip-path="url(#clipPath2)" stroke-linecap="square"/>
      <path fill="none" d="M290.2896 97.0186 L260.3984 123.6906" clip-path="url(#clipPath2)"/>
      <path d="M257.4139 126.3538 L270.3623 122.8412 L257.4139 126.3538 L262.3728 113.8875 Z" clip-path="url(#clipPath2)" stroke="none"/>
      <path fill="none" stroke-miterlimit="10" stroke-dasharray="none" d="M257.4139 126.3538 L270.3623 122.8412 L257.4139 126.3538 L262.3728 113.8875 Z" clip-path="url(#clipPath2)" stroke-linecap="square"/>
      <path fill="none" d="M191.7104 97.0186 L221.6016 123.6906" clip-path="url(#clipPath2)"/>
      <path d="M224.5861 126.3538 L219.6272 113.8875 L224.5861 126.3538 L211.6377 122.8412 Z" clip-path="url(#clipPath2)" stroke="none"/>
      <path fill="none" stroke-miterlimit="10" stroke-dasharray="none" d="M224.5861 126.3538 L219.6272 113.8875 L224.5861 126.3538 L211.6377 122.8412 Z" clip-path="url(#clipPath2)" stroke-linecap="square"/>
      <path fill="none" d="M451.7567 207.2524 L420.9619 256.5704" clip-path="url(#clipPath2)"/>
      <path fill="white" d="M413.0172 269.2937 L426.5808 258.9 L416.4022 252.5443 Z" clip-path="url(#clipPath2)" stroke="none"/>
      <path fill="none" stroke-dasharray="none" d="M413.0172 269.2937 L426.5808 258.9 L416.4022 252.5443 Z" clip-path="url(#clipPath2)"/>
      <path fill="none" d="M558.5628 185.9978 L441.3934 264.3326" clip-path="url(#clipPath2)"/>
      <path fill="white" d="M428.9235 272.6695 L445.5594 268.7648 L438.89 258.7889 Z" clip-path="url(#clipPath2)" stroke="none"/>
      <path fill="none" stroke-dasharray="none" d="M428.9235 272.6695 L445.5594 268.7648 L438.89 258.7889 Z" clip-path="url(#clipPath2)"/>
      <path fill="none" d="M445.821 127.9744 L398 173.5 L398 253.3438" clip-path="url(#clipPath2)"/>
      <path fill="white" d="M398 268.3438 L404 252.3438 L392 252.3438 Z" clip-path="url(#clipPath2)" stroke="none"/>
      <path fill="none" stroke-dasharray="none" d="M398 268.3438 L404 252.3438 L392 252.3438 Z" clip-path="url(#clipPath2)"/>
    </g>
  </g>
</svg>
